<?xml version="1.0" standalone="no"?>
<!DOCTYPE svg PUBLIC "-//W3C//DTD SVG 20010904//EN"
 "http://www.w3.org/TR/2001/REC-SVG-20010904/DTD/svg10.dtd">
<svg version="1.0" xmlns="http://www.w3.org/2000/svg"
 width="279.000000pt" height="389.000000pt" viewBox="0 0 279.000000 389.000000"
 preserveAspectRatio="xMidYMid meet">

<g transform="translate(0.000000,389.000000) scale(0.100000,-0.100000)"
fill="#000000" stroke="none">
<path d="M0 1950 l0 -1940 1390 0 1390 0 0 1940 0 1940 -1390 0 -1390 0 0
-1940z m2062 1890 l668 0 0 -1890 0 -1890 -669 0 c-472 0 -672 -3 -677 -11 -4
-8 -9 -8 -17 0 -8 8 -210 11 -674 11 l-663 0 -2 937 c-2 516 -2 1367 0 1891
l2 952 665 0 c467 0 666 3 671 11 4 8 9 8 17 0 8 -8 211 -11 679 -11z"/>
<path d="M110 3385 c0 -294 3 -375 13 -375 16 0 737 721 737 738 0 9 -82 12
-375 12 l-375 0 0 -375z"/>
<path d="M1940 3747 c0 -16 671 -687 688 -687 9 0 12 77 12 350 l0 350 -350 0
c-274 0 -350 -3 -350 -13z"/>
<path d="M1370 3332 c-14 -43 -19 -48 -62 -61 -44 -13 -49 -18 -61 -59 -11
-41 -16 -47 -57 -60 -25 -9 -40 -17 -34 -19 8 -3 6 -18 -6 -51 -15 -40 -23
-48 -60 -60 -23 -8 -37 -17 -31 -21 14 -9 -5 -82 -27 -98 -9 -7 -11 -13 -5
-13 17 0 32 24 40 61 l6 33 11 -38 c11 -40 21 -49 69 -66 l28 -10 -39 -52
c-21 -29 -41 -58 -45 -64 -4 -6 11 -53 34 -104 22 -51 38 -94 36 -97 -2 -2
-21 38 -42 88 l-39 92 -20 -26 c-12 -13 -33 -40 -47 -58 -34 -43 -45 -33 -27
22 11 34 21 45 49 54 41 14 40 26 -3 41 -23 7 -35 20 -44 45 -18 49 -17 52 14
45 27 -5 27 -5 -3 9 -24 11 -26 14 -10 15 11 1 15 4 8 6 -7 3 -20 1 -30 -5
-10 -6 -13 -11 -6 -11 7 0 5 -15 -7 -47 -15 -41 -23 -49 -60 -61 -27 -9 -38
-17 -30 -22 10 -6 9 -17 -2 -51 -12 -37 -20 -45 -57 -57 -28 -9 -39 -17 -31
-22 10 -6 9 -17 -2 -51 -13 -40 -19 -45 -63 -57 -27 -8 -43 -17 -36 -21 8 -6
8 -17 -2 -47 -12 -34 -20 -40 -61 -52 -43 -12 -46 -15 -30 -27 16 -11 16 -17
6 -53 -11 -36 -16 -41 -59 -51 -29 -8 -42 -15 -35 -20 9 -6 10 -15 1 -42 -14
-43 -31 -56 -80 -64 -48 -8 -43 -19 16 -34 36 -9 48 -18 55 -39 26 -69 26 -70
42 -22 12 37 21 47 49 57 35 12 21 17 -18 7 -15 -4 -27 -20 -35 -46 l-14 -41
-12 41 c-11 36 -17 42 -47 48 -44 8 -45 20 -1 28 29 6 37 13 48 48 l14 41 12
-41 c11 -35 17 -42 47 -48 18 -3 36 -13 39 -21 4 -8 -14 -42 -39 -78 l-46 -64
-37 13 c-31 11 -39 20 -49 56 -7 24 -15 45 -17 48 -3 2 -10 -17 -17 -43 -9
-36 -18 -49 -38 -56 -68 -24 -68 -25 -22 -40 41 -14 46 -20 61 -67 12 -35 14
-53 6 -55 -6 -2 9 -10 32 -17 32 -10 47 -21 53 -39 24 -68 25 -68 41 -21 11
35 21 46 49 57 32 12 32 13 4 7 -40 -8 -52 -19 -61 -57 l-7 -32 -10 30 c-14
42 -24 53 -60 61 l-32 7 30 10 c42 14 53 24 61 60 l7 32 12 -35 c7 -23 22 -40
41 -48 52 -23 57 -27 101 -90 l45 -62 -29 -10 c-47 -17 -56 -25 -68 -61 l-12
-34 -7 32 c-8 36 -19 46 -61 60 l-30 10 32 7 c36 8 46 19 60 61 l10 30 7 -32
c9 -38 21 -49 61 -57 28 -6 28 -5 -4 7 -28 11 -38 22 -49 57 -16 47 -17 47
-41 -21 -6 -18 -21 -29 -53 -38 -46 -14 -45 -15 23 -40 32 -12 62 -97 39 -111
-10 -6 1 -12 34 -21 37 -9 50 -18 57 -38 24 -68 25 -68 41 -21 13 39 20 46 54
57 21 6 30 12 19 12 -35 1 -68 -23 -80 -59 l-12 -35 -7 32 c-9 38 -20 48 -66
61 -21 6 -27 11 -15 11 37 2 68 26 80 61 l12 35 7 -32 c9 -38 20 -48 66 -60
27 -7 47 -25 87 -78 52 -69 57 -85 25 -85 -33 0 -65 -26 -77 -60 l-12 -35 -7
32 c-9 38 -20 48 -66 60 l-35 10 36 7 c42 8 54 19 65 61 l7 30 12 -35 c12 -36
45 -60 80 -59 11 0 2 6 -19 12 -34 11 -41 18 -54 57 -16 47 -17 47 -41 -21 -7
-20 -20 -29 -56 -38 -54 -14 -54 -17 5 -34 37 -11 44 -17 60 -59 12 -33 14
-48 6 -51 -6 -2 9 -10 33 -18 41 -14 46 -19 61 -67 12 -35 14 -52 6 -55 -6 -2
9 -10 34 -19 39 -13 46 -20 57 -54 6 -21 12 -30 12 -19 1 35 -23 68 -59 80
l-35 12 32 7 c38 9 48 20 60 66 l10 35 7 -36 c3 -21 14 -43 23 -50 14 -13 15
-12 5 6 -7 11 -18 39 -26 63 -17 53 -1 57 33 7 l24 -36 41 95 c23 53 46 99 50
103 8 8 5 0 -54 -135 -29 -68 -30 -75 -16 -91 23 -25 20 -32 -10 -21 -16 7
-23 7 -19 0 3 -6 14 -10 23 -10 10 -1 5 -7 -13 -16 -16 -8 -22 -12 -12 -9 60
17 61 17 104 -43 43 -59 43 -69 1 -53 -19 7 -28 21 -37 56 -7 26 -14 45 -17
43 -2 -3 -10 -25 -17 -48 -11 -39 -17 -45 -57 -58 -47 -16 -47 -17 21 -41 20
-7 29 -20 38 -56 7 -26 14 -45 17 -43 2 3 10 25 17 48 10 35 19 46 47 57 32
12 32 13 5 7 -41 -8 -53 -20 -61 -63 l-7 -36 -10 35 c-12 46 -22 57 -60 66
l-32 7 35 12 c35 12 59 43 61 80 0 12 5 6 11 -15 13 -47 21 -55 66 -68 29 -9
47 -25 80 -72 24 -33 41 -60 38 -60 -3 0 -16 4 -29 9 -18 7 -27 22 -36 56 -7
26 -14 45 -17 43 -2 -3 -10 -25 -17 -48 -11 -39 -17 -45 -57 -58 -47 -16 -47
-17 21 -41 20 -7 29 -20 38 -56 7 -26 14 -45 17 -43 2 3 10 25 17 48 10 35 19
46 47 57 32 12 32 13 5 7 -41 -8 -53 -20 -61 -63 l-7 -36 -10 35 c-12 46 -22
57 -60 66 l-32 7 35 12 c35 12 59 43 61 80 0 12 5 6 11 -15 13 -46 23 -57 58
-65 16 -3 40 -21 54 -40 24 -31 25 -36 12 -71 -10 -32 -20 -40 -57 -53 -46
-15 -46 -16 22 -40 18 -6 29 -21 38 -53 14 -46 15 -45 40 23 7 19 21 29 55 39
40 11 47 17 59 54 9 26 20 42 33 44 33 5 65 25 53 33 -8 5 -9 15 -2 35 7 21
20 31 52 42 27 9 39 17 31 22 -20 12 9 90 37 101 27 10 32 22 6 12 -31 -11
-41 -23 -49 -56 l-7 -32 -10 30 c-14 42 -24 53 -58 60 -16 4 -31 10 -34 15 -2
4 19 41 49 82 l53 74 -38 87 c-21 48 -34 85 -30 83 4 -3 20 -36 36 -73 15 -37
31 -72 35 -76 4 -5 24 15 44 42 20 28 44 51 53 51 34 0 66 25 78 60 l12 35 7
-32 c9 -38 20 -48 66 -60 l35 -10 -36 -7 c-42 -8 -54 -19 -65 -61 l-7 -30 -12
35 c-12 36 -45 60 -80 59 -11 0 -2 -6 19 -12 34 -11 41 -18 54 -57 16 -47 17
-47 41 21 7 20 21 29 58 39 26 7 43 14 37 17 -8 3 -6 18 6 51 19 49 23 53 80
75 l35 14 -45 15 c-44 14 -58 30 -75 86 -7 24 1 27 37 13 17 -6 28 -23 37 -53
14 -46 16 -45 40 23 6 17 21 29 48 37 30 9 38 17 39 35 3 49 27 80 74 95 l45
15 -35 14 c-56 22 -63 27 -77 68 -16 46 -13 50 23 38 21 -7 32 -21 42 -53 16
-47 17 -47 41 21 6 18 21 29 52 38 28 9 38 15 29 21 -10 6 -10 16 2 51 13 39
19 45 58 56 23 7 45 15 48 17 2 3 -17 10 -43 17 -36 9 -49 18 -56 38 -25 68
-26 69 -40 23 -13 -44 -22 -51 -81 -66 -24 -5 -31 0 -72 58 -25 36 -46 67 -46
70 0 3 17 -1 37 -8 31 -10 39 -20 52 -57 15 -46 16 -46 40 22 6 18 21 29 53
38 46 14 45 16 -23 40 -31 11 -60 88 -38 102 8 4 -3 12 -30 20 -31 9 -46 20
-52 38 -24 68 -26 69 -40 23 -9 -31 -20 -47 -37 -53 -14 -5 -26 -8 -28 -6 -2
1 2 22 8 46 8 32 17 45 37 52 68 25 69 26 23 40 -45 13 -60 34 -64 85 -2 18
-12 27 -42 37 -34 11 -42 20 -54 56 -12 35 -12 45 -2 51 9 6 -1 12 -29 21 -27
8 -46 21 -51 33 -21 57 -21 63 2 73 21 9 19 11 -26 24 -44 13 -50 18 -66 62
-12 32 -14 47 -7 47 16 1 -12 16 -43 24 -21 5 -20 4 4 -8 l30 -14 -31 -6 c-38
-9 -46 -18 -63 -71 -7 -22 -17 -43 -23 -47 -5 -3 12 -12 38 -20 42 -11 50 -18
61 -52 27 -75 -8 -76 -62 -1 -21 30 -41 55 -44 55 -3 0 -18 -32 -34 -70 -16
-39 -32 -73 -37 -76 -5 -3 4 24 20 59 47 104 47 100 1 162 -23 31 -40 58 -38
61 3 2 22 -2 43 -9 25 -9 42 -23 51 -43 12 -24 13 -25 8 -4 -9 36 -21 48 -57
56 l-32 7 30 10 c42 14 53 24 61 60 l7 32 11 -32 c6 -17 14 -35 19 -39 4 -4 0
12 -8 36 -14 41 -14 46 0 57 14 10 9 13 -31 25 -45 13 -49 17 -63 60 -13 42
-19 49 -55 61 -36 12 -42 19 -55 60 -13 41 -19 48 -55 60 -34 11 -44 21 -56
55 -9 22 -18 43 -20 46 -3 2 -12 -16 -20 -42z m35 -22 c5 -24 14 -32 47 -42
32 -10 43 -19 55 -47 22 -57 27 -64 64 -76 27 -9 37 -21 50 -56 16 -44 45 -68
84 -70 12 0 6 -5 -15 -11 -46 -13 -57 -23 -66 -61 l-7 -32 -11 32 c-14 41 -23
49 -66 60 l-35 10 36 7 c43 8 55 20 63 61 6 28 5 28 -7 -4 -13 -33 -34 -49
-69 -50 -15 -1 -16 3 -4 36 9 27 21 40 47 50 32 12 32 13 4 7 -40 -8 -52 -19
-61 -57 l-7 -32 -10 30 c-14 42 -24 53 -58 60 -38 9 -44 24 -26 68 11 26 23
37 47 42 17 4 29 9 26 12 -2 3 -20 0 -40 -7 -26 -8 -36 -18 -41 -41 -4 -16
-10 -29 -15 -29 -5 0 -11 13 -15 29 -5 23 -15 33 -41 41 -20 7 -38 10 -40 7
-3 -3 9 -8 26 -12 24 -5 36 -16 46 -41 20 -48 18 -52 -26 -65 -47 -14 -55 -22
-68 -69 -6 -21 -11 -27 -11 -15 -2 37 -26 68 -61 80 l-35 12 32 7 c38 9 48 20
60 66 8 30 16 37 61 54 42 15 52 23 57 47 8 37 22 37 30 -1z m-192 -199 c17
-7 27 -22 35 -50 11 -44 8 -46 -31 -32 -17 7 -28 21 -33 43 -4 18 -9 28 -11
22 -5 -16 15 -64 29 -69 7 -2 26 -9 41 -15 l28 -10 -42 -60 c-56 -80 -74 -80
-45 -1 9 25 22 38 47 47 19 7 27 13 19 13 -30 1 -64 -25 -75 -59 l-12 -35 -7
32 c-8 36 -19 46 -61 60 l-30 10 32 7 c37 9 46 18 62 69 13 40 17 42 54 28z
m137 3 c0 -9 -72 -106 -76 -102 -1 2 2 23 8 47 7 28 18 46 32 51 26 11 36 12
36 4z m111 -4 c5 0 13 -10 18 -22 30 -82 20 -90 -27 -24 -36 50 -39 61 -16 52
9 -3 20 -6 25 -6z m92 -116 c27 -6 39 -23 53 -78 3 -15 1 -25 -9 -29 -10 -4
-30 16 -61 60 -33 45 -42 63 -29 59 10 -3 31 -8 46 -12z m143 -10 c-3 -9 -9
-27 -12 -41 -6 -21 -50 -51 -60 -40 -10 10 23 80 41 87 31 13 38 12 31 -6z
m-565 -13 c9 -9 30 -74 25 -78 -2 -2 -14 1 -28 6 -18 7 -28 21 -36 51 -10 39
-9 40 11 34 12 -3 25 -9 28 -13z m680 -141 c14 -47 22 -55 69 -67 l35 -10 -36
-7 c-43 -8 -55 -20 -63 -61 -6 -28 -5 -28 7 4 7 19 23 38 34 42 19 7 23 3 34
-29 16 -50 25 -59 62 -68 l32 -7 -30 -10 c-42 -14 -53 -24 -61 -60 l-7 -32
-12 35 c-11 34 -45 60 -75 59 -8 0 0 -6 19 -13 25 -9 38 -22 47 -47 29 -80 4
-80 -53 1 l-42 59 39 12 c47 14 56 24 64 64 6 28 5 28 -7 -4 -7 -19 -23 -38
-35 -42 -19 -7 -23 -3 -33 32 -14 46 -22 54 -69 66 l-35 10 36 7 c43 8 55 20
63 61 6 28 5 28 -7 -4 -9 -23 -23 -38 -41 -44 -15 -5 -29 -7 -31 -5 -11 10 21
81 40 88 36 15 44 11 56 -30z m-809 -57 c5 -6 24 -15 41 -19 l32 -7 -30 -10
c-43 -14 -50 -22 -64 -67 -6 -22 -15 -40 -19 -39 -26 2 -48 20 -59 50 -12 32
-13 32 -7 4 7 -39 19 -52 55 -60 16 -4 31 -10 34 -14 8 -13 -84 -131 -103
-131 -33 0 -65 -25 -77 -60 l-12 -35 -7 32 c-9 38 -20 48 -66 60 l-35 10 36 7
c43 8 52 17 69 69 10 32 15 37 33 31 12 -3 25 -9 28 -13 9 -9 30 -73 25 -78
-11 -12 -52 19 -63 48 -13 32 -13 32 -7 4 3 -16 11 -36 17 -42 16 -16 83 -30
74 -16 -4 6 -1 28 6 49 10 29 22 41 48 50 19 7 27 13 19 13 -30 1 -64 -25 -75
-59 l-12 -35 -7 32 c-8 36 -19 46 -61 60 l-30 10 32 7 c37 9 46 18 62 69 7 20
16 37 19 36 27 -2 48 -20 59 -50 12 -32 13 -32 7 -4 -8 40 -19 52 -57 61 l-32
7 30 10 c42 14 53 24 61 60 l7 32 10 -30 c5 -16 14 -35 19 -42z m979 -200 c16
-51 25 -60 62 -69 l32 -7 -30 -10 c-42 -14 -53 -24 -61 -60 l-7 -32 -12 35
c-11 34 -45 60 -75 59 -8 0 0 -6 19 -13 26 -9 38 -21 48 -50 7 -21 11 -42 8
-46 -3 -5 14 -15 37 -22 37 -13 45 -20 55 -54 6 -21 12 -30 12 -19 1 35 -23
68 -59 80 l-35 12 30 7 c42 11 53 23 61 65 l7 36 10 -35 c12 -46 22 -57 60
-66 l32 -7 -35 -12 c-36 -12 -53 -36 -65 -94 -7 -33 -7 -34 21 -27 40 10 52
22 60 59 l7 32 10 -30 c14 -42 24 -53 60 -61 l32 -7 -30 -10 c-42 -14 -53 -24
-61 -60 l-7 -32 -10 30 c-14 44 -22 51 -72 65 -41 12 -51 22 -130 132 -47 66
-83 123 -80 128 3 5 18 11 34 15 36 8 48 21 55 60 6 28 5 28 -7 -4 -11 -29
-52 -60 -63 -48 -10 10 23 80 41 87 31 13 33 12 46 -27z m-492 -267 c-52 -118
-95 -213 -97 -211 -2 2 38 100 89 219 52 118 95 213 97 211 2 -2 -38 -100 -89
-219z m-199 -25 c44 -102 78 -186 76 -188 -4 -4 -162 356 -170 389 -6 21 -5
21 4 3 5 -11 46 -103 90 -204z m766 167 c-8 -39 -13 -45 -48 -53 l-27 -7 12
37 c10 33 32 52 61 54 5 1 6 -13 2 -31z m-1314 13 c26 -10 57 -82 35 -80 -30
2 -52 18 -64 50 -12 32 -13 32 -7 4 7 -38 22 -53 61 -61 30 -6 32 -4 44 36 12
39 45 66 70 58 13 -4 -54 -97 -69 -98 -7 0 -11 -4 -8 -9 6 -10 -71 -121 -84
-121 -17 0 -20 18 -6 56 11 32 20 41 52 51 21 6 30 12 19 12 -35 1 -68 -23
-80 -59 l-12 -35 -7 30 c-11 42 -23 53 -65 61 l-36 7 39 11 c40 11 49 21 66
69 10 29 17 32 52 18z m-91 -121 c9 0 18 -18 33 -66 6 -18 3 -21 -17 -17 -16
3 -27 17 -39 49 -14 39 -14 45 -1 40 8 -3 19 -6 24 -6z m5 -89 c10 -2 29 -7
42 -12 l23 -9 -38 -55 c-21 -30 -46 -54 -55 -55 -16 0 -16 3 -1 44 14 38 22
45 51 51 19 3 32 8 30 11 -3 2 -19 1 -37 -2 -24 -5 -36 -15 -48 -43 l-15 -36
-12 34 c-10 28 -20 37 -52 46 l-39 11 38 8 c32 6 41 14 54 44 l16 37 12 -35
c7 -21 20 -37 31 -39z m1460 -42 c14 -5 25 -23 34 -54 12 -43 15 -46 39 -40
34 8 48 24 55 60 6 28 6 28 -7 -4 -11 -29 -52 -60 -63 -48 -5 5 16 69 25 78 3
4 16 10 28 13 18 6 23 1 33 -31 17 -51 26 -60 63 -69 l32 -7 -30 -10 c-42 -14
-53 -24 -61 -60 l-7 -32 -10 30 c-14 43 -23 51 -71 65 -36 10 -51 22 -86 72
-45 64 -45 64 26 37z m-1552 1 c13 0 40 -70 31 -79 -3 -2 -15 0 -28 6 -27 13
-57 89 -30 79 8 -3 20 -6 27 -6z m823 -136 c-3 -3 5 -31 19 -61 l24 -56 -22
-58 c-13 -32 -27 -59 -32 -59 -5 0 -7 3 -3 6 3 3 -5 31 -19 61 l-24 56 22 58
c13 32 27 59 32 59 5 0 7 -3 3 -6z m-935 -91 c5 -6 23 -15 39 -18 22 -5 43
-24 74 -68 25 -33 43 -62 41 -64 -2 -2 -14 1 -28 6 -17 6 -28 22 -38 53 l-13
43 -13 -30 c-7 -16 -13 -36 -14 -43 0 -11 -39 -32 -60 -32 -5 0 -14 19 -21 43
-14 54 -23 64 -62 73 l-32 7 35 12 c35 12 59 43 61 80 0 12 5 6 11 -15 5 -19
14 -40 20 -47z m1959 -10 c13 -7 33 -13 44 -14 12 0 6 -5 -15 -11 -47 -13 -55
-21 -69 -68 -10 -36 -15 -40 -34 -34 -12 3 -25 9 -28 13 -9 9 -30 73 -25 78
11 12 52 -19 63 -48 13 -32 13 -32 7 -4 -7 38 -22 53 -59 61 -26 5 -30 3 -32
-18 -3 -50 -20 -74 -63 -87 -23 -7 -40 -14 -38 -17 6 -5 69 16 85 28 6 5 15
24 19 41 l7 32 10 -30 c14 -42 24 -53 60 -61 l32 -7 -30 -10 c-42 -14 -53 -24
-61 -60 l-7 -32 -12 35 c-11 32 -43 60 -72 60 -21 0 -23 -17 -7 -64 14 -40 21
-47 56 -58 l41 -12 -41 -14 c-36 -12 -43 -19 -54 -54 -13 -46 -24 -53 -59 -39
-17 6 -29 22 -37 47 -6 21 -10 40 -7 42 12 12 60 -27 71 -58 7 -19 13 -30 13
-24 1 6 -4 25 -10 42 -8 23 -20 34 -47 43 -20 6 -40 15 -45 18 -4 4 34 64 84
134 83 115 95 128 133 138 52 14 63 23 72 62 l7 32 12 -35 c6 -19 23 -41 36
-47z m-1121 -340 c-44 -103 -85 -192 -90 -197 -5 -5 30 81 78 192 48 110 88
199 90 197 2 -2 -33 -88 -78 -192z m204 -21 c48 -112 86 -205 84 -207 -2 -2
-43 89 -92 203 -49 114 -91 212 -94 217 -3 7 -2 7 5 0 5 -5 49 -101 97 -213z
m586 23 c14 -50 21 -58 65 -72 l30 -10 -32 -7 c-36 -8 -46 -19 -60 -61 l-10
-30 -7 32 c-8 36 -21 49 -57 58 -36 9 -41 -4 -23 -59 14 -40 21 -47 56 -58
l41 -12 -41 -14 c-36 -12 -43 -19 -57 -63 -9 -27 -23 -49 -30 -49 -26 0 -65
19 -65 32 -1 7 -7 27 -14 43 l-13 30 -13 -43 c-10 -31 -21 -47 -38 -53 -44
-17 -44 -5 0 54 34 46 46 56 62 51 49 -15 70 -31 82 -64 7 -19 13 -30 13 -24
1 6 -4 25 -10 42 -8 23 -20 34 -47 43 -20 6 -40 13 -44 16 -4 2 13 32 38 67
39 54 53 66 90 76 50 14 60 24 68 65 6 28 5 28 -7 -4 -12 -31 -50 -56 -89 -60
-4 -1 11 26 35 58 23 33 47 60 53 60 6 1 17 -19 24 -44z m-1306 -25 c46 -60
44 -70 -6 -51 -17 6 -28 23 -37 53 -14 46 -15 45 -40 -23 -6 -16 -20 -29 -36
-33 -37 -9 -39 -4 -23 45 11 34 21 45 49 55 19 7 37 13 41 13 4 1 27 -26 52
-59z m205 -286 c22 -31 38 -60 36 -65 -3 -4 -18 -10 -34 -14 -37 -8 -49 -23
-56 -66 -5 -33 -5 -33 7 5 10 29 21 42 41 49 16 5 30 7 32 5 2 -2 -1 -23 -7
-47 -8 -30 -18 -45 -35 -52 -38 -14 -42 -12 -54 36 -12 49 -20 58 -64 72 l-30
10 32 7 c38 9 48 20 60 66 l10 35 7 -36 c8 -43 20 -55 61 -63 28 -6 28 -5 -4
7 -33 13 -41 24 -55 80 -10 43 9 32 53 -29z m-82 4 c-9 -31 -19 -44 -40 -51
-16 -5 -30 -7 -32 -5 -11 10 21 81 40 88 41 17 45 13 32 -32z m677 -355 c-14
-58 -23 -69 -60 -81 -21 -6 -39 -10 -40 -9 -1 1 16 28 39 59 46 63 72 76 61
31z m67 -2 c9 -9 30 -74 25 -78 -2 -2 -15 1 -28 6 -18 7 -29 22 -37 48 -10 37
-11 37 -6 4 7 -44 19 -58 58 -67 l32 -7 -35 -12 c-24 -8 -40 -21 -50 -44 l-14
-32 -16 32 c-8 18 -22 35 -30 37 -12 3 -12 2 1 -9 25 -21 33 -51 12 -47 -9 2
-22 20 -29 40 -12 36 -12 38 13 50 15 7 31 26 36 43 5 17 10 36 13 43 4 13 41
8 55 -7z m-155 -128 c-9 -28 -21 -40 -47 -49 -19 -7 -29 -13 -22 -13 31 -2 65
21 75 51 l12 33 13 -33 c9 -22 24 -37 43 -44 36 -12 39 -28 6 -28 -28 0 -42
-14 -52 -54 -5 -20 -17 -32 -43 -42 -57 -23 -64 -28 -76 -65 l-12 -34 -7 32
c-8 36 -19 46 -61 60 l-30 10 32 7 c37 8 49 20 58 59 10 36 16 39 61 24 28
-10 41 -22 51 -48 12 -32 13 -32 7 -4 -6 31 -21 55 -35 55 -4 0 -20 4 -34 10
l-26 10 32 45 c17 24 39 46 48 48 9 3 17 5 18 6 1 0 -4 -16 -11 -36z"/>
<path d="M1275 3210 c7 -42 20 -57 60 -64 28 -6 27 -5 -5 7 -27 11 -38 23 -48
53 l-12 39 5 -35z"/>
<path d="M1484 3200 c-7 -25 -18 -36 -44 -46 -19 -7 -30 -13 -23 -13 42 -3 92
48 80 82 -2 6 -7 -5 -13 -23z"/>
<path d="M472 1940 c-23 -10 -43 -47 -41 -78 0 -9 6 1 12 22 10 31 19 42 47
52 19 7 28 13 20 13 -8 0 -25 -4 -38 -9z"/>
<path d="M2155 1761 c-7 -35 -20 -47 -58 -56 -15 -4 -26 -10 -23 -12 3 -3 20
0 40 7 27 8 38 19 46 46 7 20 10 38 7 40 -3 3 -8 -8 -12 -25z"/>
<path d="M1955 1491 c-7 -35 -20 -47 -58 -56 -15 -4 -26 -10 -23 -12 3 -3 20
0 40 7 27 8 38 19 46 46 7 20 10 38 7 40 -3 3 -8 -8 -12 -25z"/>
<path d="M1396 735 c7 -38 21 -52 59 -59 28 -6 28 -5 -4 7 -24 9 -39 24 -48
48 -12 32 -13 32 -7 4z"/>
<path d="M1122 2860 c-23 -10 -43 -47 -41 -78 0 -9 6 1 12 22 10 31 19 42 47
52 19 7 28 13 20 13 -8 0 -25 -4 -38 -9z"/>
<path d="M1770 1212 c-10 -32 -22 -47 -44 -58 -24 -11 -26 -12 -6 -8 36 9 48
21 56 57 l7 32 12 -35 c12 -35 43 -59 80 -61 12 0 6 -5 -15 -11 -46 -13 -57
-23 -66 -61 l-7 -32 -10 30 c-13 39 -23 52 -47 58 -28 7 -25 -2 3 -12 16 -6
28 -23 36 -53 14 -46 15 -45 40 23 7 20 20 29 55 38 25 6 46 13 46 16 0 3 -21
10 -46 16 -35 9 -48 18 -55 38 -25 68 -26 69 -39 23z"/>
<path d="M1670 1140 c-8 -5 -10 -10 -3 -10 7 0 5 -15 -7 -47 -14 -37 -25 -50
-51 -60 -33 -13 -33 -13 -4 -7 40 8 52 19 61 57 l7 32 10 -30 c13 -40 26 -55
46 -54 12 0 11 2 -4 9 -26 10 -50 80 -32 92 9 6 9 8 -1 8 -7 0 -10 5 -7 10 8
12 4 12 -15 0z"/>
<path d="M1758 1013 c6 -2 10 -9 7 -14 -4 -5 1 -6 10 -2 13 5 14 7 3 14 -7 5
-17 8 -23 8 -5 0 -4 -3 3 -6z"/>
<path d="M2263 541 c-200 -202 -363 -373 -363 -379 0 -9 92 -12 375 -12 l375
0 0 380 c0 298 -3 380 -12 379 -7 -1 -176 -167 -375 -368z"/>
<path d="M110 515 l0 -385 385 0 c301 0 385 3 385 12 0 17 -741 758 -757 758
-10 0 -13 -83 -13 -385z"/>
</g>
</svg>
